<svg width="18" height="19" viewBox="0 0 18 19" fill="none" xmlns="http://www.w3.org/2000/svg">
<path d="M15.875 0.841797C16.3958 0.841797 16.8385 1.02409 17.2031 1.38867C17.5677 1.75326 17.75 2.19596 17.75 2.7168V16.4668C17.75 16.9876 17.5677 17.4303 17.2031 17.7949C16.8385 18.1595 16.3958 18.3418 15.875 18.3418H2.125C1.60417 18.3418 1.16146 18.1595 0.796875 17.7949C0.432292 17.4303 0.25 16.9876 0.25 16.4668V2.7168C0.25 2.19596 0.432292 1.75326 0.796875 1.38867C1.16146 1.02409 1.60417 0.841797 2.125 0.841797H15.875ZM16.5 16.4668V2.7168C16.5 2.53451 16.4349 2.39128 16.3047 2.28711C16.2005 2.1569 16.0573 2.0918 15.875 2.0918H2.125C1.94271 2.0918 1.78646 2.1569 1.65625 2.28711C1.55208 2.39128 1.5 2.53451 1.5 2.7168V16.4668C1.5 16.6491 1.55208 16.8053 1.65625 16.9355C1.78646 17.0397 1.94271 17.0918 2.125 17.0918H15.875C16.0573 17.0918 16.2005 17.0397 16.3047 16.9355C16.4349 16.8053 16.5 16.6491 16.5 16.4668Z" fill="#808385"/>
</svg>
