<svg width="18" height="18" viewBox="0 0 18 18" fill="none" xmlns="http://www.w3.org/2000/svg">
<path d="M12.9375 0.421875H10.125C9.892 0.421875 9.70312 0.610755 9.70312 0.84375V1.6875C9.70312 1.9205 9.892 2.10938 10.125 2.10938H12.9375C13.1705 2.10938 13.3594 1.9205 13.3594 1.6875V0.84375C13.3594 0.610755 13.1705 0.421875 12.9375 0.421875Z" fill="#EDA62A"/>
<path d="M4.78125 6.60938H1.96875C1.85686 6.60938 1.74956 6.65382 1.67044 6.73294C1.59132 6.81206 1.54688 6.91936 1.54688 7.03125C1.54688 7.14314 1.59132 7.25044 1.67044 7.32956C1.74956 7.40868 1.85686 7.45312 1.96875 7.45312H4.78125C4.89314 7.45312 5.00044 7.40868 5.07956 7.32956C5.15868 7.25044 5.20312 7.14314 5.20312 7.03125C5.20312 6.91936 5.15868 6.81206 5.07956 6.73294C5.00044 6.65382 4.89314 6.60938 4.78125 6.60938Z" fill="#EDA62A"/>
<path d="M4.64062 10.4062C4.64062 10.2944 4.59618 10.1871 4.51706 10.1079C4.43794 10.0288 4.33064 9.98438 4.21875 9.98438H1.40625C1.29436 9.98438 1.18706 10.0288 1.10794 10.1079C1.02882 10.1871 0.984375 10.2944 0.984375 10.4062C0.984375 10.5181 1.02882 10.6254 1.10794 10.7046C1.18706 10.7837 1.29436 10.8281 1.40625 10.8281H4.21875C4.33064 10.8281 4.43794 10.7837 4.51706 10.7046C4.59618 10.6254 4.64062 10.5181 4.64062 10.4062Z" fill="#EDA62A"/>
<path d="M4.5 11.6719H2.53125C2.41936 11.6719 2.31206 11.7163 2.23294 11.7954C2.15382 11.8746 2.10938 11.9819 2.10938 12.0938C2.10938 12.2056 2.15382 12.3129 2.23294 12.3921C2.31206 12.4712 2.41936 12.5156 2.53125 12.5156H4.5C4.61189 12.5156 4.71919 12.4712 4.79831 12.3921C4.87743 12.3129 4.92188 12.2056 4.92188 12.0938C4.92188 11.9819 4.87743 11.8746 4.79831 11.7954C4.71919 11.7163 4.61189 11.6719 4.5 11.6719Z" fill="#EDA62A"/>
<path d="M4.64062 8.71875C4.64062 8.60686 4.59618 8.49956 4.51706 8.42044C4.43794 8.34132 4.33064 8.29688 4.21875 8.29688H0.5625C0.450612 8.29687 0.343306 8.34132 0.264189 8.42044C0.185072 8.49956 0.140625 8.60686 0.140625 8.71875C0.140625 8.83064 0.185072 8.93794 0.264189 9.01706C0.343306 9.09618 0.450612 9.14062 0.5625 9.14062H4.21875C4.33064 9.14062 4.43794 9.09618 4.51706 9.01706C4.59618 8.93794 4.64062 8.83064 4.64062 8.71875Z" fill="#EDA62A"/>
<path d="M11.5312 9.5625V4.78125C8.89485 4.78125 6.75 6.9261 6.75 9.5625C6.75 12.1989 8.89485 14.3438 11.5312 14.3438C14.1677 14.3438 16.3125 12.1989 16.3125 9.5625H11.5312Z" fill="#EDA62A"/>
<path d="M16.1584 5.25069L16.6108 4.7983C16.6505 4.75924 16.6821 4.71271 16.7037 4.66139C16.7253 4.61007 16.7366 4.55498 16.7368 4.49929C16.737 4.4436 16.7262 4.38841 16.705 4.33692C16.6838 4.28543 16.6526 4.23864 16.6132 4.19926C16.5739 4.15988 16.5271 4.12869 16.4756 4.10748C16.4241 4.08627 16.3689 4.07547 16.3132 4.0757C16.2575 4.07593 16.2024 4.08718 16.1511 4.1088C16.0998 4.13043 16.0533 4.162 16.0142 4.2017L15.5434 4.67248C14.6367 3.92556 13.5393 3.44693 12.375 3.29062V2.53125H10.6875V3.29062C9.52324 3.44687 8.42583 3.92542 7.51911 4.67227L7.0483 4.20149C7.00925 4.16179 6.96271 4.13022 6.91139 4.10859C6.86007 4.08697 6.80498 4.07571 6.74929 4.07549C6.6936 4.07526 6.63842 4.08606 6.58692 4.10727C6.53543 4.12848 6.48864 4.15967 6.44926 4.19905C6.40988 4.23843 6.37869 4.28521 6.35748 4.33671C6.33628 4.3882 6.32547 4.44339 6.3257 4.49908C6.32593 4.55477 6.33718 4.60986 6.3588 4.66118C6.38043 4.7125 6.412 4.75903 6.4517 4.79809L6.90406 5.25048C5.81008 6.41967 5.20196 7.96131 5.20313 9.5625C5.20313 13.0518 8.04192 15.8906 11.5313 15.8906C15.0206 15.8906 17.8594 13.0518 17.8594 9.5625C17.8605 7.96139 17.2524 6.41983 16.1584 5.25069ZM11.5313 14.7656C10.5022 14.7656 9.4962 14.4605 8.64055 13.8887C7.7849 13.317 7.118 12.5044 6.72419 11.5536C6.33038 10.6029 6.22734 9.55673 6.4281 8.54742C6.62887 7.53811 7.12442 6.611 7.85209 5.88333C8.57976 5.15566 9.50686 4.66012 10.5162 4.45935C11.5255 4.25859 12.5717 4.36163 13.5224 4.75544C14.4731 5.14925 15.2858 5.81615 15.8575 6.6718C16.4292 7.52745 16.7344 8.53342 16.7344 9.5625C16.7344 10.2458 16.5998 10.9224 16.3383 11.5536C16.0768 12.1849 15.6936 12.7585 15.2104 13.2417C14.7273 13.7248 14.1537 14.1081 13.5224 14.3696C12.8911 14.631 12.2145 14.7656 11.5313 14.7656Z" fill="#EDA62A"/>
</svg>
