<svg width="18" height="18" viewBox="0 0 18 18" fill="none" xmlns="http://www.w3.org/2000/svg">
<g clip-path="url(#clip0_165_14684)">
<path d="M3.06445 7.37576L9.0002 9.34335L14.9359 7.37576L9.0002 5.4082L3.06445 7.37576Z" fill="#EDA62A"/>
<path d="M16.3863 8.00586L9.80566 10.1872L11.4174 12.7475L17.9981 10.5661L16.3863 8.00586Z" fill="#EDA62A"/>
<path d="M8.47308 11.7256L7.03607 14.0082L1.91602 12.311V15.826L8.47308 17.9996V11.7256Z" fill="#EDA62A"/>
<path d="M10.9644 14.0082L9.52734 11.7256V17.9996L16.0844 15.826V12.311L10.9644 14.0082Z" fill="#EDA62A"/>
<path d="M6.58358 12.7475L8.19536 10.1872L1.61474 8.00586L0.00292969 10.5661L6.58358 12.7475Z" fill="#EDA62A"/>
<path d="M8.47266 0H9.52734V3.52174H8.47266V0Z" fill="#EDA62A"/>
<path d="M3.5127 1.61133L4.42605 1.08398L6.18693 4.13381L5.27357 4.66116L3.5127 1.61133Z" fill="#EDA62A"/>
<path d="M11.8135 4.13477L13.5743 1.08494L14.4877 1.61228L12.7268 4.66211L11.8135 4.13477Z" fill="#EDA62A"/>
</g>
<defs>
<clipPath id="clip0_165_14684">
<rect width="18" height="18" fill="white"/>
</clipPath>
</defs>
</svg>
