<svg width="18" height="18" viewBox="0 0 18 18" fill="none" xmlns="http://www.w3.org/2000/svg">
<g clip-path="url(#clip0_165_14677)">
<path fill-rule="evenodd" clip-rule="evenodd" d="M8.00153 0.680517L10.2768 1.99417L2.90004 6.25317V9.40911C2.90004 9.53522 2.96255 9.6435 3.07178 9.70657L4.78171 10.6938C4.8363 10.7253 4.89881 10.7253 4.95345 10.6938C5.00804 10.6623 5.0393 10.6081 5.0393 10.5451V7.48828L12.4161 3.22927L14.6914 4.54292C14.9099 4.66903 15.0349 4.88559 15.0349 5.1378V9.0855C14.4172 8.87713 13.7636 8.76473 13.1107 8.7249V8.46024C13.1107 8.17189 12.9461 7.91332 12.6848 7.79133C12.4237 7.66937 12.1197 7.7091 11.8986 7.89409L9.27949 10.0862C9.06223 10.268 8.9435 10.5332 8.95257 10.8163C8.96164 11.1007 9.09612 11.3558 9.32548 11.5241L11.9358 13.4392C12.1612 13.6046 12.4567 13.6288 12.7061 13.5025C12.9558 13.376 13.1107 13.1238 13.1107 12.8439V12.5517C13.654 12.6165 14.1918 12.7835 14.6334 13.1033C14.7191 13.1653 14.8003 13.2328 14.8759 13.3054C14.8253 13.3646 14.7635 13.416 14.6915 13.4576L8.00153 17.32C7.7831 17.4461 7.53304 17.4461 7.31461 17.32L0.624727 13.4576C0.406266 13.3315 0.28125 13.1149 0.28125 12.8627V5.13784C0.28125 4.88559 0.406266 4.66903 0.624727 4.54296L7.31464 0.680517C7.53307 0.554411 7.7831 0.554411 8.00153 0.680517ZM12.5482 11.9566C16.2217 11.9566 17.2627 15.4652 14.2454 17.0422C14.2288 17.0508 14.2218 17.0706 14.2294 17.0876C14.2365 17.1035 14.2533 17.1119 14.2701 17.1077C19.2832 15.8746 18.9328 9.27049 12.5482 9.27049V8.46024C12.5482 8.39035 12.5101 8.33055 12.4468 8.30099C12.3835 8.27142 12.3132 8.2806 12.2596 8.32546L9.64051 10.5176C9.55487 10.5893 9.51121 10.6868 9.51476 10.7984C9.51834 10.91 9.56816 11.0046 9.65819 11.0706L12.2685 12.9857C12.3233 13.0259 12.3913 13.0315 12.4519 13.0008C12.5125 12.9701 12.5482 12.9119 12.5482 12.844V11.9566Z" fill="#EDA62A"/>
</g>
<defs>
<clipPath id="clip0_165_14677">
<rect width="18" height="18" fill="white"/>
</clipPath>
</defs>
</svg>
