<svg width="24" height="32" viewBox="0 0 24 32" fill="none" xmlns="http://www.w3.org/2000/svg">
<path d="M20.4776 7.14258H3.52227C2.52331 7.14258 1.71423 7.95668 1.71423 8.95061V19.7988C1.71423 20.7987 2.52926 21.6069 3.52227 21.6069H20.4776C21.4682 21.6069 22.2857 20.8021 22.2857 19.7988V8.95061C22.2857 7.95844 21.4798 7.14258 20.4776 7.14258ZM20.2244 8.34794C19.855 8.71537 13.4979 15.039 13.2784 15.2573C12.9369 15.5988 12.4829 15.7869 11.9999 15.7869C11.517 15.7869 11.063 15.5988 10.7203 15.2562C10.5727 15.1093 4.28578 8.85555 3.77547 8.34794H20.2244ZM2.91959 19.5535V9.19671L8.12826 14.3779L2.91959 19.5535ZM3.77624 20.4015L8.98286 15.228L9.86916 16.1096C10.4383 16.6788 11.1951 16.9922 11.9999 16.9922C12.8048 16.9922 13.5616 16.6788 14.1296 16.1108L15.017 15.228L20.2237 20.4015H3.77624ZM21.0803 19.5535L15.8716 14.3779L21.0803 9.19671V19.5535Z" fill="#294646"/>
</svg>
